<svg width="16" height="16" viewBox="0 0 16 16" fill="none" xmlns="http://www.w3.org/2000/svg">
<path d="M15 8.33333C15 7.28 14.4167 6.36667 13.568 5.93333C13.6707 5.64333 13.7267 5.33 13.7267 5C13.7267 3.52667 12.5867 2.33467 11.1813 2.33467C10.868 2.33467 10.568 2.39067 10.2907 2.50133C9.87866 1.61 9.00666 1 8 1C6.99333 1 6.12266 1.61133 5.70866 2.5C5.432 2.39 5.13133 2.33333 4.818 2.33333C3.41133 2.33333 2.27266 3.52667 2.27266 5C2.27266 5.32933 2.328 5.64267 2.43066 5.93333C1.58266 6.36667 0.999329 7.27867 0.999329 8.33333C0.999329 9.33 1.52066 10.1987 2.294 10.6573C2.28066 10.7707 2.27266 10.884 2.27266 11C2.27266 12.4733 3.41133 13.6667 4.818 13.6667C5.13133 13.6667 5.43133 13.6093 5.708 13.5C6.12133 14.3893 6.992 15 7.99933 15C9.00733 15 9.878 14.3893 10.2907 13.5C10.5673 13.6087 10.8673 13.6653 11.1813 13.6653C12.588 13.6653 13.7267 12.472 13.7267 10.9987C13.7267 10.8827 13.7187 10.7693 13.7047 10.6567C14.4767 10.1987 15 9.33 15 8.334V8.33333ZM10.5893 6.11067L7.7 10.444C7.60333 10.5887 7.44533 10.6667 7.28333 10.6667C7.188 10.6667 7.09133 10.64 7.006 10.5827L6.92933 10.52L5.31933 8.91C5.124 8.71467 5.124 8.398 5.31933 8.20333C5.51466 8.00867 5.83133 8.00733 6.026 8.20333L7.206 9.38133L9.756 5.55467C9.90933 5.32467 10.22 5.264 10.4493 5.41667C10.68 5.57 10.7427 5.88067 10.5893 6.11V6.11067Z" fill="white"/>
</svg>
